<?xml version="1.0" encoding="UTF-8"?>
<svg xmlns="http://www.w3.org/2000/svg" xmlns:xlink="http://www.w3.org/1999/xlink" width="192px" height="192px" viewBox="0 0 192 192" version="1.1">
<g id="surface1">
<rect x="0" y="0" width="192" height="192" style="fill:rgb(56.470588%,79.215686%,97.647059%);fill-opacity:1;stroke:none;"/>
<path style=" stroke:none;fill-rule:nonzero;fill:rgb(100%,100%,100%);fill-opacity:1;" d="M 90.621094 113.121094 C 90.621094 113.261719 90.613281 113.40625 90.601562 113.542969 L 84.0625 113.542969 C 83.523438 113.542969 83 113.488281 82.5 113.375 C 82.488281 113.296875 82.488281 113.207031 82.488281 113.121094 C 82.488281 110.875 84.3125 109.058594 86.558594 109.058594 C 88.804688 109.058594 90.621094 110.875 90.621094 113.121094 Z M 90.621094 113.121094 "/>
<path style=" stroke:none;fill-rule:nonzero;fill:rgb(100%,100%,100%);fill-opacity:1;" d="M 111.632812 113.121094 C 111.632812 113.191406 111.632812 113.257812 111.628906 113.320312 C 111.046875 113.46875 110.4375 113.542969 109.8125 113.542969 L 103.527344 113.542969 C 103.515625 113.40625 103.507812 113.261719 103.507812 113.117188 C 103.507812 110.871094 105.324219 109.054688 107.570312 109.054688 C 109.816406 109.058594 111.632812 110.875 111.632812 113.121094 Z M 111.632812 113.121094 "/>
<path style=" stroke:none;fill-rule:nonzero;fill:rgb(100%,100%,100%);fill-opacity:1;" d="M 109.8125 56.414062 L 107.351562 56.414062 L 105.714844 63.285156 L 105.714844 56.414062 L 93.023438 56.414062 L 91.378906 63.285156 L 91.378906 56.414062 L 84.0625 56.414062 C 79.90625 56.414062 76.53125 59.785156 76.53125 63.949219 L 76.53125 106.011719 C 76.53125 108.695312 77.933594 111.050781 80.046875 112.375 C 80.414062 109.113281 83.195312 106.574219 86.558594 106.574219 C 90.167969 106.574219 93.101562 109.507812 93.101562 113.121094 C 93.101562 113.261719 93.097656 113.40625 93.089844 113.542969 L 101.039062 113.542969 C 101.03125 113.40625 101.027344 113.265625 101.027344 113.121094 C 101.027344 109.507812 103.960938 106.574219 107.570312 106.574219 C 110.886719 106.574219 113.628906 109.042969 114.054688 112.234375 C 116.039062 110.875 117.34375 108.597656 117.34375 106.011719 L 117.34375 63.949219 C 117.34375 59.785156 113.96875 56.414062 109.8125 56.414062 Z M 97.761719 104.027344 C 97.472656 104.382812 97.03125 104.597656 96.570312 104.597656 C 96.109375 104.597656 95.671875 104.382812 95.382812 104.027344 C 92.355469 100.265625 82.503906 87.503906 82.503906 81.019531 C 82.503906 73.257812 88.8125 66.949219 96.574219 66.949219 C 104.328125 66.949219 110.644531 73.257812 110.644531 81.019531 C 110.640625 87.503906 100.78125 100.265625 97.761719 104.027344 Z M 97.761719 104.027344 "/>
<path style=" stroke:none;fill-rule:nonzero;fill:rgb(100%,100%,100%);fill-opacity:1;" d="M 105.714844 47.6875 L 105.714844 58.972656 L 101.371094 58.972656 L 101.371094 48.628906 L 91.375 48.628906 L 91.375 58.972656 L 87.035156 58.972656 L 87.035156 47.6875 C 87.035156 45.8125 88.558594 44.285156 90.433594 44.285156 L 102.316406 44.285156 C 104.1875 44.285156 105.714844 45.8125 105.714844 47.6875 Z M 105.714844 47.6875 "/>
<path style=" stroke:none;fill-rule:nonzero;fill:rgb(100%,100%,100%);fill-opacity:1;" d="M 90.621094 113.121094 C 90.621094 113.261719 90.613281 113.40625 90.601562 113.542969 C 90.390625 115.589844 88.660156 117.183594 86.554688 117.183594 C 86.511719 117.183594 86.464844 117.183594 86.417969 117.179688 C 85.488281 117.15625 84.632812 116.808594 83.960938 116.25 C 83.117188 115.558594 82.566406 114.535156 82.496094 113.375 C 82.484375 113.296875 82.484375 113.207031 82.484375 113.121094 C 82.484375 110.875 84.308594 109.058594 86.554688 109.058594 C 88.804688 109.058594 90.621094 110.875 90.621094 113.121094 Z M 90.621094 113.121094 "/>
<path style=" stroke:none;fill-rule:nonzero;fill:rgb(100%,100%,100%);fill-opacity:1;" d="M 111.632812 113.121094 C 111.632812 113.191406 111.632812 113.257812 111.628906 113.320312 C 111.523438 115.472656 109.75 117.183594 107.570312 117.183594 C 107.527344 117.183594 107.480469 117.183594 107.433594 117.175781 C 106.503906 117.152344 105.648438 116.804688 104.976562 116.246094 C 104.183594 115.585938 103.644531 114.628906 103.527344 113.542969 C 103.515625 113.40625 103.507812 113.261719 103.507812 113.117188 C 103.507812 110.871094 105.324219 109.054688 107.570312 109.054688 C 109.816406 109.058594 111.632812 110.875 111.632812 113.121094 Z M 111.632812 113.121094 "/>
<path style=" stroke:none;fill-rule:nonzero;fill:rgb(100%,100%,100%);fill-opacity:1;" d="M 105.175781 80.21875 L 105.175781 79.269531 C 105.175781 78.992188 104.949219 78.765625 104.671875 78.765625 C 104.390625 78.765625 104.164062 78.992188 104.164062 79.269531 L 104.164062 79.351562 L 98.417969 74.410156 C 98.492188 71.871094 98.546875 69.851562 98.546875 69.386719 C 98.546875 67.53125 96.851562 66.421875 96.566406 66.421875 C 96.28125 66.421875 94.585938 67.53125 94.585938 69.386719 C 94.585938 69.851562 94.640625 71.871094 94.714844 74.410156 L 88.96875 79.351562 L 88.96875 79.269531 C 88.96875 78.992188 88.742188 78.765625 88.460938 78.765625 C 88.183594 78.765625 87.957031 78.992188 87.957031 79.269531 L 87.957031 80.21875 L 84.605469 83.097656 L 84.605469 84.496094 L 91.933594 80.449219 L 94.886719 80.136719 C 95.171875 83.339844 95.511719 88.273438 95.511719 88.273438 L 92.0625 90.996094 L 92.0625 91.9375 L 95.65625 91.082031 C 95.683594 91.59375 95.996094 91.738281 95.996094 91.738281 C 95.996094 92.59375 96.566406 92.792969 96.566406 92.792969 C 96.566406 92.792969 97.136719 92.59375 97.136719 91.738281 C 97.136719 91.738281 97.449219 91.59375 97.476562 91.082031 L 101.070312 91.9375 L 101.070312 90.996094 L 97.621094 88.273438 C 97.621094 88.273438 97.960938 83.339844 98.246094 80.136719 L 101.199219 80.449219 L 108.523438 84.496094 L 108.523438 83.097656 Z M 105.175781 80.21875 "/>
<path style=" stroke:none;fill-rule:nonzero;fill:rgb(100%,100%,100%);fill-opacity:1;" d="M 89.5 81.824219 L 88.878906 92.554688 L 88.257812 81.824219 C 88.238281 81.484375 88.5 81.1875 88.84375 81.167969 C 89.183594 81.148438 89.476562 81.410156 89.5 81.75 C 89.5 81.777344 89.5 81.800781 89.5 81.824219 Z M 89.5 81.824219 "/>
<path style=" stroke:none;fill-rule:nonzero;fill:rgb(100%,100%,100%);fill-opacity:1;" d="M 105.0625 81.824219 L 104.441406 92.554688 L 103.820312 81.824219 C 103.804688 81.484375 104.0625 81.1875 104.40625 81.167969 C 104.746094 81.148438 105.042969 81.410156 105.0625 81.75 C 105.0625 81.777344 105.0625 81.800781 105.0625 81.824219 Z M 105.0625 81.824219 "/>
<path style=" stroke:none;fill-rule:nonzero;fill:rgb(100%,100%,100%);fill-opacity:1;" d="M 94.792969 90.8125 L 94.480469 96.320312 L 94.171875 90.8125 C 94.160156 90.644531 94.292969 90.496094 94.460938 90.484375 C 94.632812 90.476562 94.78125 90.605469 94.789062 90.777344 C 94.792969 90.789062 94.792969 90.800781 94.792969 90.8125 Z M 94.792969 90.8125 "/>
<path style=" stroke:none;fill-rule:nonzero;fill:rgb(100%,100%,100%);fill-opacity:1;" d="M 98.871094 90.8125 L 98.558594 96.320312 L 98.25 90.8125 C 98.238281 90.644531 98.371094 90.496094 98.539062 90.484375 C 98.710938 90.476562 98.859375 90.605469 98.867188 90.777344 C 98.871094 90.789062 98.871094 90.800781 98.871094 90.8125 Z M 98.871094 90.8125 "/>
<path style=" stroke:none;fill-rule:nonzero;fill:rgb(100%,100%,100%);fill-opacity:1;" d="M 87.023438 116.714844 C 87.023438 116.964844 86.8125 117.175781 86.558594 117.175781 L 75.125 117.175781 C 74.871094 117.175781 74.660156 116.964844 74.660156 116.714844 C 74.660156 116.453125 74.871094 116.25 75.125 116.25 L 86.558594 116.25 C 86.8125 116.25 87.023438 116.453125 87.023438 116.714844 Z M 87.023438 116.714844 "/>
<path style=" stroke:none;fill-rule:nonzero;fill:rgb(100%,100%,100%);fill-opacity:1;" d="M 108.035156 116.714844 C 108.035156 116.964844 107.824219 117.175781 107.570312 117.175781 L 93.265625 117.175781 C 93.003906 117.175781 92.800781 116.964844 92.800781 116.714844 C 92.800781 116.453125 93.007812 116.25 93.265625 116.25 L 107.570312 116.25 C 107.824219 116.25 108.035156 116.453125 108.035156 116.714844 Z M 108.035156 116.714844 "/>
<path style=" stroke:none;fill-rule:nonzero;fill:rgb(100%,100%,100%);fill-opacity:1;" d="M 22.511719 123.722656 L 39.882812 123.722656 L 39.882812 127.554688 L 33.570312 127.554688 L 33.570312 147.40625 L 28.820312 147.40625 L 28.820312 127.554688 L 22.507812 127.554688 L 22.507812 123.722656 Z M 22.511719 123.722656 "/>
<path style=" stroke:none;fill-rule:nonzero;fill:rgb(100%,100%,100%);fill-opacity:1;" d="M 48.09375 147.40625 L 43.34375 147.40625 L 43.34375 128.605469 L 48.09375 128.605469 L 48.09375 131.527344 C 49.28125 129.59375 51.25 128.335938 53.863281 128.335938 L 53.863281 133.324219 L 52.609375 133.324219 C 49.792969 133.324219 48.09375 134.410156 48.09375 138.042969 Z M 48.09375 147.40625 "/>
<path style=" stroke:none;fill-rule:nonzero;fill:rgb(100%,100%,100%);fill-opacity:1;" d="M 64.414062 128.300781 C 67.433594 128.300781 69.503906 129.726562 70.625 131.289062 L 70.625 128.605469 L 75.40625 128.605469 L 75.40625 147.40625 L 70.625 147.40625 L 70.625 144.660156 C 69.503906 146.285156 67.363281 147.714844 64.378906 147.714844 C 59.628906 147.714844 55.828125 143.808594 55.828125 137.941406 C 55.828125 132.070312 59.628906 128.300781 64.414062 128.300781 Z M 65.636719 132.476562 C 63.089844 132.476562 60.679688 134.378906 60.679688 137.941406 C 60.679688 141.503906 63.089844 143.539062 65.636719 143.539062 C 68.25 143.539062 70.625 141.570312 70.625 138.007812 C 70.625 134.445312 68.25 132.476562 65.636719 132.476562 Z M 65.636719 132.476562 "/>
<path style=" stroke:none;fill-rule:nonzero;fill:rgb(100%,100%,100%);fill-opacity:1;" d="M 83.140625 128.605469 L 87.890625 143.03125 L 92.640625 128.605469 L 97.699219 128.605469 L 90.742188 147.40625 L 84.972656 147.40625 L 78.050781 128.605469 Z M 83.140625 128.605469 "/>
<path style=" stroke:none;fill-rule:nonzero;fill:rgb(100%,100%,100%);fill-opacity:1;" d="M 108.589844 147.714844 C 103.125 147.714844 99.15625 143.910156 99.15625 138.007812 C 99.15625 132.070312 103.023438 128.300781 108.589844 128.300781 C 114.019531 128.300781 117.851562 132 117.851562 137.601562 C 117.851562 138.210938 117.820312 138.820312 117.71875 139.433594 L 103.972656 139.433594 C 104.210938 142.214844 106.113281 143.773438 108.488281 143.773438 C 110.523438 143.773438 111.644531 142.757812 112.253906 141.503906 L 117.378906 141.503906 C 116.359375 144.964844 113.238281 147.714844 108.589844 147.714844 Z M 104.007812 136.242188 L 112.933594 136.242188 C 112.867188 133.765625 110.898438 132.207031 108.453125 132.207031 C 106.179688 132.207031 104.378906 133.664062 104.007812 136.242188 Z M 104.007812 136.242188 "/>
<path style=" stroke:none;fill-rule:nonzero;fill:rgb(100%,100%,100%);fill-opacity:1;" d="M 121.308594 122.296875 L 126.058594 122.296875 L 126.058594 147.40625 L 121.308594 147.40625 Z M 121.308594 122.296875 "/>
<path style=" stroke:none;fill-rule:nonzero;fill:rgb(100%,100%,100%);fill-opacity:1;" d="M 131.011719 123.6875 L 133.386719 123.6875 L 133.386719 138.617188 C 133.386719 143.539062 135.964844 145.542969 139.667969 145.542969 C 143.367188 145.542969 145.875 143.539062 145.875 138.617188 L 145.875 123.6875 L 148.25 123.6875 L 148.25 138.582031 C 148.25 144.863281 144.449219 147.644531 139.632812 147.644531 C 134.8125 147.644531 131.011719 144.863281 131.011719 138.582031 Z M 131.011719 123.6875 "/>
<path style=" stroke:none;fill-rule:nonzero;fill:rgb(100%,100%,100%);fill-opacity:1;" d="M 153.542969 122.296875 L 155.917969 122.296875 L 155.917969 147.40625 L 153.542969 147.40625 Z M 153.542969 122.296875 "/>
<path style=" stroke:none;fill-rule:nonzero;fill:rgb(100%,100%,100%);fill-opacity:1;" d="M 161.992188 130.878906 L 159.410156 130.878906 L 159.410156 128.878906 L 161.992188 128.878906 L 161.992188 124.230469 L 164.398438 124.230469 L 164.398438 128.878906 L 169.488281 128.878906 L 169.488281 130.878906 L 164.398438 130.878906 L 164.398438 142.386719 C 164.398438 144.660156 165.179688 145.371094 167.320312 145.371094 L 169.488281 145.371094 L 169.488281 147.40625 L 166.945312 147.40625 C 163.71875 147.40625 161.988281 146.082031 161.988281 142.382812 L 161.988281 130.878906 Z M 161.992188 130.878906 "/>
</g>
</svg>
