<?xml version="1.0" encoding="UTF-8"?>
<svg xmlns="http://www.w3.org/2000/svg" xmlns:xlink="http://www.w3.org/1999/xlink" width="512px" height="512px" viewBox="0 0 512 512" version="1.1">
<g id="surface1">
<rect x="0" y="0" width="512" height="512" style="fill:rgb(56.470588%,79.215686%,97.647059%);fill-opacity:1;stroke:none;"/>
<path style=" stroke:none;fill-rule:nonzero;fill:rgb(100%,100%,100%);fill-opacity:1;" d="M 241.652344 301.65625 C 241.652344 302.035156 241.636719 302.417969 241.601562 302.78125 L 224.164062 302.78125 C 222.726562 302.78125 221.332031 302.632812 219.996094 302.335938 C 219.964844 302.121094 219.964844 301.890625 219.964844 301.660156 C 219.964844 295.667969 224.828125 290.828125 230.820312 290.828125 C 236.808594 290.820312 241.652344 295.664062 241.652344 301.65625 Z M 241.652344 301.65625 "/>
<path style=" stroke:none;fill-rule:nonzero;fill:rgb(100%,100%,100%);fill-opacity:1;" d="M 297.691406 301.65625 C 297.691406 301.839844 297.691406 302.019531 297.675781 302.183594 C 296.121094 302.582031 294.503906 302.777344 292.828125 302.777344 L 276.070312 302.777344 C 276.039062 302.414062 276.019531 302.035156 276.019531 301.648438 C 276.019531 295.660156 280.867188 290.816406 286.851562 290.816406 C 292.84375 290.820312 297.691406 295.664062 297.691406 301.65625 Z M 297.691406 301.65625 "/>
<path style=" stroke:none;fill-rule:nonzero;fill:rgb(100%,100%,100%);fill-opacity:1;" d="M 292.828125 150.441406 L 286.273438 150.441406 L 281.90625 168.761719 L 281.90625 150.441406 L 248.058594 150.441406 L 243.675781 168.761719 L 243.675781 150.441406 L 224.167969 150.441406 C 213.085938 150.441406 204.082031 159.425781 204.082031 170.527344 L 204.082031 282.695312 C 204.082031 289.859375 207.820312 296.128906 213.464844 299.667969 C 214.441406 290.964844 221.847656 284.199219 230.820312 284.199219 C 240.449219 284.199219 248.273438 292.023438 248.273438 301.65625 C 248.273438 302.035156 248.257812 302.417969 248.242188 302.78125 L 269.433594 302.78125 C 269.417969 302.417969 269.402344 302.039062 269.402344 301.65625 C 269.402344 292.023438 277.226562 284.199219 286.859375 284.199219 C 295.695312 284.199219 303.007812 290.785156 304.148438 299.289062 C 309.441406 295.664062 312.917969 289.59375 312.917969 282.695312 L 312.917969 170.527344 C 312.914062 159.425781 303.914062 150.441406 292.828125 150.441406 Z M 260.699219 277.402344 C 259.921875 278.359375 258.75 278.921875 257.527344 278.921875 C 256.285156 278.921875 255.125 278.359375 254.351562 277.402344 C 246.277344 267.375 220.007812 233.34375 220.007812 216.054688 C 220.007812 195.359375 236.832031 178.527344 257.53125 178.527344 C 278.210938 178.527344 295.054688 195.355469 295.054688 216.054688 C 295.046875 233.34375 268.753906 267.375 260.699219 277.402344 Z M 260.699219 277.402344 "/>
<path style=" stroke:none;fill-rule:nonzero;fill:rgb(100%,100%,100%);fill-opacity:1;" d="M 281.90625 127.164062 L 281.90625 157.261719 L 270.324219 157.261719 L 270.324219 129.679688 L 243.671875 129.679688 L 243.671875 157.261719 L 232.089844 157.261719 L 232.089844 127.164062 C 232.089844 122.167969 236.160156 118.097656 241.15625 118.097656 L 272.839844 118.097656 C 277.835938 118.097656 281.90625 122.167969 281.90625 127.164062 Z M 281.90625 127.164062 "/>
<path style=" stroke:none;fill-rule:nonzero;fill:rgb(100%,100%,100%);fill-opacity:1;" d="M 241.652344 301.65625 C 241.652344 302.035156 241.636719 302.417969 241.601562 302.78125 C 241.039062 308.238281 236.425781 312.492188 230.816406 312.492188 C 230.695312 312.492188 230.570312 312.492188 230.453125 312.480469 C 227.96875 312.414062 225.683594 311.484375 223.898438 309.996094 C 221.648438 308.15625 220.175781 305.429688 219.992188 302.335938 C 219.960938 302.121094 219.960938 301.890625 219.960938 301.660156 C 219.960938 295.667969 224.824219 290.828125 230.816406 290.828125 C 236.808594 290.820312 241.652344 295.664062 241.652344 301.65625 Z M 241.652344 301.65625 "/>
<path style=" stroke:none;fill-rule:nonzero;fill:rgb(100%,100%,100%);fill-opacity:1;" d="M 297.691406 301.65625 C 297.691406 301.839844 297.691406 302.019531 297.675781 302.183594 C 297.394531 307.921875 292.664062 312.488281 286.859375 312.488281 C 286.742188 312.488281 286.613281 312.488281 286.496094 312.472656 C 284.011719 312.40625 281.726562 311.480469 279.941406 309.992188 C 277.820312 308.234375 276.382812 305.675781 276.070312 302.777344 C 276.039062 302.414062 276.019531 302.035156 276.019531 301.648438 C 276.019531 295.660156 280.867188 290.816406 286.851562 290.816406 C 292.84375 290.820312 297.691406 295.664062 297.691406 301.65625 Z M 297.691406 301.65625 "/>
<path style=" stroke:none;fill-rule:nonzero;fill:rgb(100%,100%,100%);fill-opacity:1;" d="M 280.472656 213.917969 L 280.472656 211.390625 C 280.472656 210.640625 279.871094 210.039062 279.121094 210.039062 C 278.375 210.039062 277.769531 210.640625 277.769531 211.390625 L 277.769531 211.597656 L 262.453125 198.429688 C 262.652344 191.65625 262.792969 186.277344 262.792969 185.027344 C 262.792969 180.085938 258.269531 177.121094 257.511719 177.121094 C 256.753906 177.121094 252.226562 180.085938 252.226562 185.027344 C 252.226562 186.277344 252.371094 191.65625 252.570312 198.429688 L 237.25 211.597656 L 237.25 211.390625 C 237.25 210.640625 236.644531 210.039062 235.898438 210.039062 C 235.152344 210.039062 234.546875 210.640625 234.546875 211.390625 L 234.546875 213.917969 L 225.613281 221.597656 L 225.613281 225.324219 L 245.160156 214.527344 L 253.03125 213.699219 C 253.789062 222.242188 254.699219 235.398438 254.699219 235.398438 L 245.5 242.65625 L 245.5 245.167969 L 255.078125 242.882812 C 255.15625 244.25 255.988281 244.632812 255.988281 244.632812 C 255.988281 246.917969 257.511719 247.445312 257.511719 247.445312 C 257.511719 247.445312 259.03125 246.910156 259.03125 244.632812 C 259.03125 244.632812 259.867188 244.253906 259.941406 242.882812 L 269.523438 245.167969 L 269.523438 242.65625 L 260.320312 235.398438 C 260.320312 235.398438 261.234375 222.242188 261.992188 213.699219 L 269.859375 214.527344 L 289.398438 225.324219 L 289.398438 221.597656 Z M 280.472656 213.917969 "/>
<path style=" stroke:none;fill-rule:nonzero;fill:rgb(100%,100%,100%);fill-opacity:1;" d="M 238.664062 218.199219 L 237.011719 246.816406 L 235.355469 218.199219 C 235.304688 217.289062 236 216.503906 236.914062 216.449219 C 237.824219 216.398438 238.605469 217.09375 238.664062 218.003906 C 238.667969 218.070312 238.667969 218.132812 238.664062 218.199219 Z M 238.664062 218.199219 "/>
<path style=" stroke:none;fill-rule:nonzero;fill:rgb(100%,100%,100%);fill-opacity:1;" d="M 280.167969 218.199219 L 278.511719 246.816406 L 276.859375 218.199219 C 276.808594 217.289062 277.503906 216.503906 278.414062 216.449219 C 279.328125 216.398438 280.109375 217.09375 280.167969 218.003906 C 280.171875 218.070312 280.171875 218.132812 280.167969 218.199219 Z M 280.167969 218.199219 "/>
<path style=" stroke:none;fill-rule:nonzero;fill:rgb(100%,100%,100%);fill-opacity:1;" d="M 252.78125 242.171875 L 251.949219 256.851562 L 251.121094 242.171875 C 251.09375 241.714844 251.441406 241.320312 251.898438 241.296875 C 252.355469 241.269531 252.75 241.617188 252.773438 242.074219 C 252.78125 242.105469 252.78125 242.140625 252.78125 242.171875 Z M 252.78125 242.171875 "/>
<path style=" stroke:none;fill-rule:nonzero;fill:rgb(100%,100%,100%);fill-opacity:1;" d="M 263.65625 242.171875 L 262.824219 256.851562 L 261.996094 242.171875 C 261.96875 241.714844 262.316406 241.320312 262.773438 241.296875 C 263.230469 241.269531 263.625 241.617188 263.648438 242.074219 C 263.660156 242.105469 263.660156 242.140625 263.65625 242.171875 Z M 263.65625 242.171875 "/>
<path style=" stroke:none;fill-rule:nonzero;fill:rgb(100%,100%,100%);fill-opacity:1;" d="M 232.058594 311.234375 C 232.058594 311.910156 231.496094 312.472656 230.820312 312.472656 L 200.332031 312.472656 C 199.65625 312.472656 199.089844 311.910156 199.089844 311.234375 C 199.089844 310.539062 199.65625 309.996094 200.332031 309.996094 L 230.820312 309.996094 C 231.496094 309.996094 232.058594 310.539062 232.058594 311.234375 Z M 232.058594 311.234375 "/>
<path style=" stroke:none;fill-rule:nonzero;fill:rgb(100%,100%,100%);fill-opacity:1;" d="M 288.097656 311.234375 C 288.097656 311.910156 287.535156 312.472656 286.859375 312.472656 L 248.710938 312.472656 C 248.011719 312.472656 247.46875 311.910156 247.46875 311.234375 C 247.46875 310.539062 248.019531 309.996094 248.710938 309.996094 L 286.859375 309.996094 C 287.535156 309.996094 288.097656 310.539062 288.097656 311.234375 Z M 288.097656 311.234375 "/>
<path style=" stroke:none;fill-rule:nonzero;fill:rgb(100%,100%,100%);fill-opacity:1;" d="M 60.027344 329.921875 L 106.359375 329.921875 L 106.359375 340.148438 L 89.523438 340.148438 L 89.523438 393.089844 L 76.855469 393.089844 L 76.855469 340.148438 L 60.023438 340.148438 L 60.023438 329.921875 Z M 60.027344 329.921875 "/>
<path style=" stroke:none;fill-rule:nonzero;fill:rgb(100%,100%,100%);fill-opacity:1;" d="M 128.25 393.089844 L 115.585938 393.089844 L 115.585938 342.953125 L 128.25 342.953125 L 128.25 350.734375 C 131.421875 345.578125 136.667969 342.230469 143.636719 342.230469 L 143.636719 355.53125 L 140.289062 355.53125 C 132.777344 355.53125 128.25 358.429688 128.25 368.113281 Z M 128.25 393.089844 "/>
<path style=" stroke:none;fill-rule:nonzero;fill:rgb(100%,100%,100%);fill-opacity:1;" d="M 171.769531 342.140625 C 179.824219 342.140625 185.34375 345.9375 188.328125 350.101562 L 188.328125 342.953125 L 201.089844 342.953125 L 201.089844 393.089844 L 188.328125 393.089844 L 188.328125 385.757812 C 185.34375 390.097656 179.640625 393.902344 171.679688 393.902344 C 159.011719 393.902344 148.875 383.492188 148.875 367.839844 C 148.875 352.183594 159.011719 342.140625 171.769531 342.140625 Z M 175.027344 353.269531 C 168.238281 353.269531 161.8125 358.339844 161.8125 367.839844 C 161.8125 377.34375 168.238281 382.769531 175.027344 382.769531 C 181.996094 382.769531 188.328125 377.523438 188.328125 368.019531 C 188.328125 358.519531 181.996094 353.269531 175.027344 353.269531 Z M 175.027344 353.269531 "/>
<path style=" stroke:none;fill-rule:nonzero;fill:rgb(100%,100%,100%);fill-opacity:1;" d="M 221.710938 342.953125 L 234.378906 381.414062 L 247.046875 342.953125 L 260.53125 342.953125 L 241.980469 393.089844 L 226.597656 393.089844 L 208.132812 342.953125 Z M 221.710938 342.953125 "/>
<path style=" stroke:none;fill-rule:nonzero;fill:rgb(100%,100%,100%);fill-opacity:1;" d="M 289.570312 393.902344 C 275 393.902344 264.414062 383.765625 264.414062 368.019531 C 264.414062 352.183594 274.730469 342.140625 289.570312 342.140625 C 304.050781 342.140625 314.277344 352.003906 314.277344 366.933594 C 314.277344 368.5625 314.183594 370.191406 313.914062 371.820312 L 277.261719 371.820312 C 277.898438 379.238281 282.96875 383.402344 289.300781 383.402344 C 294.726562 383.402344 297.71875 380.6875 299.347656 377.339844 L 313.011719 377.339844 C 310.292969 386.570312 301.96875 393.902344 289.570312 393.902344 Z M 277.355469 363.316406 L 301.152344 363.316406 C 300.972656 356.710938 295.726562 352.546875 289.207031 352.546875 C 283.144531 352.546875 278.347656 356.4375 277.355469 363.316406 Z M 277.355469 363.316406 "/>
<path style=" stroke:none;fill-rule:nonzero;fill:rgb(100%,100%,100%);fill-opacity:1;" d="M 323.492188 326.125 L 336.160156 326.125 L 336.160156 393.089844 L 323.492188 393.089844 Z M 323.492188 326.125 "/>
<path style=" stroke:none;fill-rule:nonzero;fill:rgb(100%,100%,100%);fill-opacity:1;" d="M 349.367188 329.832031 L 355.703125 329.832031 L 355.703125 369.648438 C 355.703125 382.769531 362.578125 388.113281 372.445312 388.113281 C 382.308594 388.113281 389.003906 382.769531 389.003906 369.648438 L 389.003906 329.832031 L 395.335938 329.832031 L 395.335938 369.554688 C 395.335938 386.300781 385.199219 393.71875 372.351562 393.71875 C 359.5 393.71875 349.367188 386.300781 349.367188 369.554688 Z M 349.367188 329.832031 "/>
<path style=" stroke:none;fill-rule:nonzero;fill:rgb(100%,100%,100%);fill-opacity:1;" d="M 409.445312 326.125 L 415.78125 326.125 L 415.78125 393.089844 L 409.445312 393.089844 Z M 409.445312 326.125 "/>
<path style=" stroke:none;fill-rule:nonzero;fill:rgb(100%,100%,100%);fill-opacity:1;" d="M 431.972656 349.015625 L 425.097656 349.015625 L 425.097656 343.675781 L 431.972656 343.675781 L 431.972656 331.28125 L 438.398438 331.28125 L 438.398438 343.675781 L 451.972656 343.675781 L 451.972656 349.015625 L 438.398438 349.015625 L 438.398438 379.695312 C 438.398438 385.757812 440.484375 387.65625 446.183594 387.65625 L 451.972656 387.65625 L 451.972656 393.082031 L 445.183594 393.082031 C 436.585938 393.082031 431.96875 389.554688 431.96875 379.6875 L 431.96875 349.015625 Z M 431.972656 349.015625 "/>
</g>
</svg>
